<svg xmlns="http://www.w3.org/2000/svg" xmlns:xlink="http://www.w3.org/1999/xlink" version="1.1" width="1080" height="1080" viewBox="0 0 1080 1080" xml:space="preserve">
<desc>Created with Fabric.js 3.5.0</desc>
<defs>
</defs>
<rect x="0" y="0" width="100%" height="100%" fill="rgba(255,255,255,0)"/>
<g transform="matrix(1 0 0 1 674.3273 571.0037)" style="" id="738155">
		
<path xml:space="preserve" font-family="Galada" font-size="200" style="stroke: none; stroke-width: 0; stroke-dasharray: none; stroke-linecap: butt; stroke-dashoffset: 0; stroke-linejoin: miter; stroke-miterlimit: 4; is-custom-font: none; font-file-url: none; fill: rgb(48,48,48); fill-rule: nonzero; opacity: 1; white-space: pre;" d="M-242.90 54.83L-244.50 62.83L-273.30 62.83L-246.10-64.37L-216.50-68.37L-240.50 43.83Q-237.70 45.83-234.90 46.83Q-232.10 47.83-229.10 47.83L-229.10 47.83Q-212.90 47.83-201.80 21.13Q-190.70-5.57-190.70-40.17L-190.70-40.17Q-190.70-58.97-198.10-68.47Q-205.50-77.97-219.90-77.97L-219.90-77.97Q-243.30-77.97-257.80-64.67Q-272.30-51.37-272.30-29.37L-272.30-29.37Q-272.30-25.57-271.80-22.77Q-271.30-19.97-270.10-17.37L-270.10-17.37Q-269.70-16.57-269.60-16.27Q-269.50-15.97-269.50-15.77L-269.50-15.77Q-280.30-15.77-285.60-20.37Q-290.90-24.97-290.90-34.37L-290.90-34.37Q-290.90-45.37-283.80-55.87Q-276.70-66.37-264.30-74.17L-264.30-74.17Q-254.10-80.37-241.80-83.77Q-229.50-87.17-216.50-87.17L-216.50-87.17Q-190.90-87.17-177-71.87Q-163.10-56.57-163.10-29.57L-163.10-29.57Q-163.10-14.97-166.50 0.03Q-169.90 15.03-176.10 28.03L-176.10 28.03Q-184.30 45.63-195.50 55.53Q-206.70 65.43-218.50 65.43L-218.50 65.43Q-224.50 65.43-230.60 62.73Q-236.70 60.03-242.90 54.83L-242.90 54.83ZM-94.50-27.97L-94.50-27.97L-94.50-26.57L-92.30-37.17L-63.50-37.17L-77.90 30.83Q-78.30 32.63-78.50 34.13Q-78.70 35.63-78.70 37.23L-78.70 37.23Q-78.70 41.63-76.70 43.73Q-74.70 45.83-70.50 45.83L-70.50 45.83Q-65.30 45.83-61.10 40.93Q-56.90 36.03-54.30 27.03L-54.30 27.03L-45.90 27.03Q-52.30 45.43-62.50 54.73Q-72.70 64.03-86.10 64.03L-86.10 64.03Q-94.70 64.03-99.80 59.23Q-104.90 54.43-105.70 45.63L-105.70 45.63Q-111.90 54.83-119.40 59.43Q-126.90 64.03-135.50 64.03L-135.50 64.03Q-147.90 64.03-155.00 55.63Q-162.10 47.23-162.10 31.83L-162.10 31.83Q-162.10 20.63-158.70 8.43Q-155.30-3.77-149.30-13.77L-149.30-13.77Q-141.90-25.57-132.10-31.87Q-122.30-38.17-110.70-38.17L-110.70-38.17Q-102.90-38.17-98.70-35.47Q-94.50-32.77-94.50-27.97ZM-105.90 27.03L-96.30-18.17Q-96.30-21.17-98.50-23.47Q-100.70-25.77-104.50-25.77L-104.50-25.77Q-115.50-25.77-124.00-7.37Q-132.50 11.03-132.50 29.03L-132.50 29.03Q-132.50 36.83-130.30 40.73Q-128.10 44.63-122.50 44.63L-122.50 44.63Q-117.30 44.63-112.40 39.63Q-107.50 34.63-105.90 27.03L-105.90 27.03ZM-17.70-13.17L-33.70 62.83L-62.50 62.83L-41.30-37.17L-12.50-37.17L-15.10-24.77Q-6.30-32.17-1.20-34.67Q3.90-37.17 9.10-37.17L9.10-37.17Q15.30-37.17 19.10-32.87Q22.90-28.57 22.90-22.17L22.90-22.17Q22.90-15.97 18.90-11.77Q14.90-7.57 8.50-7.57L8.50-7.57Q5.10-7.57 3.20-9.17Q1.30-10.77 0.50-15.77L0.50-15.77Q-0.10-18.97-0.90-19.87Q-1.70-20.77-3.10-20.77L-3.10-20.77Q-6.50-20.77-9.50-19.37Q-12.50-17.97-17.70-13.17L-17.70-13.17ZM93.30-19.77L93.30-19.77Q93.30-3.17 79.70 9.13Q66.10 21.43 47.30 22.43L47.30 22.43Q47.10 25.83 47.00 27.53Q46.90 29.23 46.90 30.43L46.90 30.43Q46.90 39.63 50.00 43.43Q53.10 47.23 61.30 47.23L61.30 47.23Q70.70 47.23 78.60 42.93Q86.50 38.63 96.70 27.03L96.70 27.03L103.50 27.03Q91.90 45.83 78.30 54.93Q64.70 64.03 48.50 64.03L48.50 64.03Q33.10 64.03 25.20 56.03Q17.30 48.03 17.30 32.23L17.30 32.23Q17.30 20.83 20.90 8.03Q24.50-4.77 30.50-14.77L30.50-14.77Q37.90-26.77 48.20-32.87Q58.50-38.97 71.30-38.97L71.30-38.97Q82.30-38.97 87.80-34.27Q93.30-29.57 93.30-19.77ZM72.90-28.37L72.90-28.37Q66.10-28.37 59.20-16.27Q52.30-4.17 48.90 12.83L48.90 12.83Q60.50 12.03 69.20 2.13Q77.90-7.77 77.90-20.17L77.90-20.17Q77.90-24.37 76.70-26.37Q75.50-28.37 72.90-28.37ZM123.30-73.17L123.30-73.17Q133.50-79.77 145.20-83.47Q156.90-87.17 168.10-87.17L168.10-87.17Q169.50-87.17 171.20-87.07Q172.90-86.97 176.10-86.77L176.10-86.77L163.10-25.57Q171.50-37.17 190-61.77Q208.50-86.37 208.50-86.17L208.50-86.17L229.50-86.17L173.90-22.17Q174.70-22.17 175.40-22.17Q176.10-22.17 177.70-22.37L177.70-22.37L180.90-22.37Q193.50-22.37 199.60-17.17Q205.70-11.97 205.70-0.97L205.70-0.97Q205.70 3.63 204.70 9.53Q203.70 15.43 200.30 27.43L200.30 27.43Q197.50 37.63 196.70 42.03Q195.90 46.43 195.90 49.63L195.90 49.63Q195.90 54.23 198 57.83Q200.10 61.43 203.70 62.83L203.70 62.83Q197.90 64.43 192.80 65.33Q187.70 66.23 183.90 66.23L183.90 66.23Q176.10 66.23 172.20 62.93Q168.30 59.63 168.30 52.83L168.30 52.83Q168.30 49.43 169.30 44.53Q170.30 39.63 173.30 28.23L173.30 28.23Q176.70 15.83 177.80 10.13Q178.90 4.43 178.90 0.23L178.90 0.23Q178.90-6.57 175.90-9.97Q172.90-13.37 166.90-13.37L166.90-13.37Q165.90-13.37 164.60-13.17Q163.30-12.97 160.30-12.57L160.30-12.57L144.30 62.83L115.50 62.83L144.50-73.17Q130.90-67.57 123.70-56.27Q116.50-44.97 116.50-29.37L116.50-29.37Q116.50-25.57 117.00-22.77Q117.50-19.97 118.70-17.37L118.70-17.37Q119.10-16.57 119.20-16.27Q119.30-15.97 119.30-15.77L119.30-15.77Q108.10-15.77 103.00-20.47Q97.90-25.17 97.90-35.17L97.90-35.17Q97.90-45.17 104.60-55.17Q111.30-65.17 123.30-73.17ZM254.10-13.17L238.10 62.83L209.30 62.83L230.50-37.17L259.30-37.17L256.70-24.77Q265.50-32.17 270.60-34.67Q275.70-37.17 280.90-37.17L280.90-37.17Q287.10-37.17 290.90-32.87Q294.70-28.57 294.70-22.17L294.70-22.17Q294.70-15.97 290.70-11.77Q286.70-7.57 280.30-7.57L280.30-7.57Q276.90-7.57 275-9.17Q273.10-10.77 272.30-15.77L272.30-15.77Q271.70-18.97 270.90-19.87Q270.10-20.77 268.70-20.77L268.70-20.77Q265.30-20.77 262.30-19.37Q259.30-17.97 254.10-13.17L254.10-13.17Z"/></g>
<g transform="matrix(1 0 0 1 741.9732 728.4188)" style="" id="447082">
		
<path xml:space="preserve" font-family="Aclonica" font-size="152" font-weight="normal" style="stroke: none; stroke-width: 0; stroke-dasharray: none; stroke-linecap: butt; stroke-dashoffset: 0; stroke-linejoin: miter; stroke-miterlimit: 4; is-custom-font: none; font-file-url: none; fill: rgb(48,48,48); fill-rule: nonzero; opacity: 1; white-space: pre;" d="M-57.43-5.84L-57.43-5.84Q-57.43 1.96-59.51 8.97Q-61.59 15.98-65.34 21.92Q-69.08 27.86-74.28 32.65Q-79.47 37.43-85.75 40.77Q-92.02 44.11-99.18 45.93Q-106.34 47.75-113.91 47.75L-113.91 47.75L-161.04 47.75L-161.04-59.13L-113.91-59.13Q-106.34-59.13-99.22-57.34Q-92.09-55.56-85.82-52.26Q-79.55-48.96-74.32-44.21Q-69.08-39.46-65.34-33.56Q-61.59-27.66-59.51-20.64Q-57.43-13.63-57.43-5.84ZM-87.34-5.84L-87.34-5.84Q-87.34-14.52-89.46-22.35Q-91.57-30.18-96.03-36.12Q-100.48-42.06-107.34-45.54Q-114.21-49.03-123.78-49.03L-123.78-49.03L-131.58-49.03L-131.58 37.36L-123.78 37.36Q-114.36 37.36-107.49 33.83Q-100.63 30.31-96.14 24.33Q-91.65 18.36-89.49 10.57Q-87.34 2.77-87.34-5.84ZM62.43-3.39L62.43-3.39L62.43-1.98Q62.28 4.26 61.13 10.94Q59.98 17.62 57.90 24.30Q55.83 30.98 52.93 37.51Q50.04 44.04 46.44 50.01Q42.84 55.99 38.68 61.22Q34.53 66.45 29.92 70.46L29.92 70.46L18.86 64.08Q21.46 59.70 23.58 54.54Q25.69 49.38 27.40 43.74Q29.11 38.10 30.33 32.16Q31.56 26.23 32.37 20.36Q33.19 14.50 33.60 8.82Q34.01 3.14 34.01-1.98L34.01-1.98Q34.01-5.99 33.97-11.07Q33.93-16.15 33.37-21.42Q32.82-26.69 31.56-31.70Q30.29-36.71 27.81-40.65Q25.32-44.58 21.43-46.95Q17.53-49.33 11.74-49.33L11.74-49.33Q6.62-49.33 2.94-47.58Q-0.73-45.84-3.29-42.91Q-5.85-39.98-7.37-36.12Q-8.89-32.26-9.75-27.99Q-10.60-23.72-10.86-19.38Q-11.12-15.04-11.12-11.18L-11.12-11.18L-11.12 9.53L20.87 9.53L20.87 21.77L-11.12 21.77L-11.12 47.75L-40.58 47.75L-40.58-6.58Q-40.58-18.23-36.87-28.25Q-33.16-38.27-26.37-45.65Q-19.58-53.04-10.04-57.23Q-0.51-61.43 11.22-61.43L11.22-61.43Q19.16-61.43 26.10-59.16Q33.04-56.90 38.76-52.93Q44.47-48.96 48.96-43.50Q53.45-38.05 56.46-31.59Q59.46-25.13 61.02-17.93Q62.58-10.74 62.43-3.39ZM125.52-45.47L125.52 47.75L96.05 47.75L96.05-45.47L66.96-45.47L66.96-59.13L154.61-59.13L154.61-45.47L125.52-45.47ZM183.33-25.58L183.33 47.75L169.68 47.75L169.68-59.13L188.83-59.13L253.77 14.28L253.77-59.13L267.35-59.13L267.35 47.75L248.20 47.75L183.33-25.58Z"/></g>
<g transform="matrix(1 0 0 1 703.5075 607.6505)" style="" id="238214">
		
</g>
<g transform="matrix(0.7397 0 0 0.7397 335.6308 637.5124)" id="459072">
<filter id="SVGID_161" y="-28.02%" height="156.04%" x="-27.62%" width="155.24%">
	<feGaussianBlur in="SourceAlpha" stdDeviation="3.5"/>
	<feOffset dx="-9" dy="10" result="oBlur"/>
	<feFlood flood-color="rgb(0,0,0)" flood-opacity="1"/>
	<feComposite in2="oBlur" operator="in"/>
	<feMerge>
		<feMergeNode/>
		<feMergeNode in="SourceGraphic"/>
	</feMerge>
</filter>
<path style="stroke: none; stroke-width: 1; stroke-dasharray: none; stroke-linecap: butt; stroke-dashoffset: 0; stroke-linejoin: miter; stroke-miterlimit: 4; is-custom-font: none; font-file-url: none; fill: rgb(29,29,27); fill-rule: nonzero; opacity: 0.83;filter: url(#SVGID_161);" vector-effect="non-scaling-stroke" transform=" translate(-131.2579, -131.1608)" d="M 26.89 128.14 c 6.78 0 12.74 0 18.7 0 a 5.29 5.29 0 0 0 2.37 -0.54 c 5.34 -2.93 10.37 -6 14.31 -11 c 4.33 -5.59 8 -11.33 9.55 -18.13 c 1.16 -5.16 2.56 -10.63 -0.56 -15.73 a 38 38 0 0 0 -3.46 -4.81 c -5.41 -6.29 -9.57 -13.71 -16.93 -18.28 c -2.86 -1.79 -3 -3.28 -1.88 -6 c 5 -1.77 8.82 0.53 12.24 3.54 a 48.76 48.76 0 0 1 8.55 9.44 a 41.51 41.51 0 0 0 8.31 9.7 c 2.84 2.24 6.89 2.83 10.63 2.86 a 38.29 38.29 0 0 0 10.27 -1 c 6.69 -1.84 13.21 -4.26 17.36 -10.46 a 10.81 10.81 0 0 1 1.56 -1.93 c 5.28 -5 7.9 -10.8 5.82 -18.16 a 12.08 12.08 0 0 1 -0.09 -2.49 c -0.28 -4.47 -0.62 -9 -0.85 -13.42 a 12 12 0 0 1 0.3 -3.93 c 0.58 -2 2.21 -2.68 4.27 -2.63 s 3 1.21 3.21 3.07 c 0.5 4.38 0.9 8.77 1.39 13.15 c 0.32 2.9 0.64 5.8 1.09 8.68 c 1.13 7.25 6.25 10.43 12.65 12.29 c 1.11 0.32 2.46 0.41 3.28 1.1 c 4.91 4.1 10.83 3.58 16.55 3.73 c 6.95 0.18 13.91 0 20.52 0 c 2.55 -3.91 4.89 -7.67 7.41 -11.31 c 1.92 -2.78 3.7 -5.83 6.22 -8 a 63.51 63.51 0 0 0 7.21 -7.94 c 2.19 -2.63 6.24 -3.63 7.94 -2 s 1.1 5.28 -1.15 7.66 c -3.82 4 -7.72 8 -11.62 11.89 c -3.07 3.08 -4.92 7.37 -7.44 11 a 101.29 101.29 0 0 1 -6.53 8.74 c -5 5.79 -6.53 12.23 -5 19.74 c 1 4.71 1.88 9.37 4.23 13.59 a 28.67 28.67 0 0 0 3.91 5.64 c 3.45 3.71 7.08 7.27 10.77 10.75 a 5.37 5.37 0 0 0 3.06 1.18 c 5.55 0.5 11.12 0.86 16.68 1.27 c 3.64 0.27 7.27 0.61 10.91 0.76 c 2.21 0.1 3.51 1.05 3.64 3.24 c 0.14 2.43 -1.37 3.94 -3.68 4.37 c -5.73 1 -11.52 0.67 -17.22 0.29 c -8.32 -0.57 -14.05 3.24 -18.55 9.56 a 50.72 50.72 0 0 0 -9 21.21 c -0.55 3.33 0.59 6.89 0.42 10.31 c -0.38 7.53 1.7 14.61 3.52 21.74 a 9 9 0 0 0 2.55 3.61 c 3 3.07 6.21 6 9.28 9 a 17.93 17.93 0 0 1 3.54 4.13 a 3.93 3.93 0 0 1 -0.38 3.6 c -0.62 0.69 -2.48 0.81 -3.51 0.42 a 12.2 12.2 0 0 1 -3.49 -2.7 a 123.85 123.85 0 0 1 -15.42 -18 c -0.59 -0.81 -1.25 -1.55 -2 -2.5 c -2.75 -0.42 -5.73 -0.63 -8.59 -1.34 c -8.64 -2.15 -16.34 0.75 -23.82 4.38 a 68.48 68.48 0 0 0 -10.88 6.79 c -4.65 3.46 -6.63 8.64 -7.31 14.15 c -0.4 3.2 -1.69 6.32 -0.69 9.8 a 4.14 4.14 0 0 1 -3.26 4.88 c -1.77 0.21 -3.59 -0.13 -4 -2.1 a 45.35 45.35 0 0 1 -0.89 -7.8 a 25.24 25.24 0 0 1 0.69 -4.41 c 0.52 -3.67 -0.51 -6.4 -3.38 -9.21 c -4.49 -4.38 -9.27 -8.37 -14.11 -12.29 a 21.56 21.56 0 0 0 -10.38 -4.08 c -2.11 -0.34 -4.24 -0.62 -6.34 -1 a 23.6 23.6 0 0 0 -9.65 0.14 c -5 1.09 -10 1.85 -15 2.9 A 7.14 7.14 0 0 0 61.39 201 c -3.12 3.12 -6.09 6.39 -9.11 9.62 c -0.23 0.24 -0.34 0.66 -0.6 0.78 c -5.49 2.51 -8 7.61 -10.63 12.33 c -3.44 1.21 -5.47 -0.57 -7 -2.8 c -1.28 -1.82 -0.21 -5.55 1.94 -7.56 c 2.75 -2.58 5.24 -5.39 8.8 -7.13 c 2 -1 3.36 -3.16 5 -4.81 c 3.72 -3.72 7.48 -7.42 11.14 -11.21 c 1.09 -1.12 2.38 -2.36 2.79 -3.78 c 2.48 -8.53 5.29 -17 5.05 -26.11 c -0.11 -4.4 -0.92 -8.44 -4 -11.85 c -2.1 -2.29 -3.79 -5 -5.86 -7.3 c -4.14 -4.64 -10 -5.17 -15.6 -6 c -4.34 -0.66 -8.81 -0.5 -13.16 -1.12 a 6 6 0 0 1 -3.75 -2.76 C 25.83 130.39 26.76 128.73 26.89 128.14 Z m 106.8 -64.79 c -1.95 5.89 -1.14 11.89 -0.81 17.8 a 6.54 6.54 0 0 0 2.73 4.53 c 5.24 3.12 10.64 6.1 16.7 7.28 c 2.4 0.47 5 -0.25 7.44 0.13 c 3.63 0.56 5.83 -0.77 7.89 -3.73 c 2.61 -3.73 4.62 -8.06 8.83 -10.48 c 1.46 -0.84 2.88 -1.76 4.32 -2.65 l -0.06 -1.42 C 164 75.87 148.19 73.23 133.69 63.35 Z M 72.59 190.49 c 2 1.22 2.93 -0.54 4.23 -0.92 c 3 -0.88 6 -2.24 8.93 -2.21 c 4.22 0 8.44 1 12.62 1.84 c 7 1.36 12.63 5.34 17.53 10.28 c 2.58 2.61 4.64 5.72 7.52 9.33 c 0.4 -3.49 1.37 -6.08 0.78 -8.25 c -0.92 -3.41 -2.23 -6.83 -5 -9.48 a 21 21 0 0 1 -4.35 -6 c -3.24 -6.82 -9.21 -10.57 -15.31 -14.23 a 3.11 3.11 0 0 0 -2.33 -0.35 c -2.6 1 -5.56 1.62 -7.6 3.33 c -5.37 4.49 -10.35 9.45 -15.44 14.28 A 12.67 12.67 0 0 0 72.59 190.49 Z M 124.27 69.54 c -1.28 0.9 -2.07 1.15 -2.25 1.64 c -1.54 4.1 -4.93 6 -8.68 7.52 a 12.42 12.42 0 0 0 -2.71 1.18 c -6.17 4.52 -12.86 6.29 -20.44 4.42 c -1 -0.25 -2.27 0.4 -3.76 0.71 c 2.08 2.6 3.65 4.71 5.36 6.69 q 4.14 4.8 8.43 9.45 a 4.55 4.55 0 0 0 2.12 1.13 c 4.5 1.16 8.83 0.74 12.62 -2.13 c 4.78 -3.62 9.12 -7.79 9.55 -14.18 C 124.85 80.81 124.39 75.6 124.27 69.54 Z m 7.36 138.26 c 12.26 -11 25 -18.57 41.33 -17.72 c -2.6 -6.51 -9.49 -7.89 -13.66 -13.09 c -5.39 0.69 -11.1 1.38 -16.79 2.19 a 5.65 5.65 0 0 0 -2.09 1.23 c -5.65 4 -8.07 9.81 -8.73 16.41 C 131.35 200.24 131.63 203.73 131.63 207.8 Z M 94 122.08 c 0 -4.56 0.11 -9.17 -0.08 -13.77 a 6.47 6.47 0 0 0 -1.6 -3.48 c -2.5 -3 -5.23 -5.89 -7.75 -8.92 c -1 -1.2 -1.81 -2.4 -3.76 -1.37 c -0.18 2.22 -0.19 4.52 -0.56 6.78 c -1.29 7.93 -6 14.1 -10.82 20.12 c -1.38 1.73 -3.55 2.81 -5.29 4.28 a 20.46 20.46 0 0 0 -2.09 2.41 c 3 2.4 5.89 2.18 8.9 1.7 a 17.4 17.4 0 0 1 6.33 -0.28 a 10.31 10.31 0 0 0 8.41 -1.84 C 88.33 126 90.9 124.2 94 122.08 Z m 101.39 16.31 a 12.66 12.66 0 0 0 -1.48 -0.22 c -1.5 0 -3 0.12 -4.49 0 c -10.23 -0.84 -15.38 6.28 -20.59 13.19 c -1.89 2.5 -0.75 5.37 -0.25 8.11 c 1.48 8.06 3.17 16 8.27 22.78 c 1 1.31 1.91 2.69 3 3.95 s 2.22 2.35 3.34 3.52 C 177.53 170.25 181.54 153.36 195.42 138.39 Z M 72 182.11 a 11.69 11.69 0 0 0 1.43 -1 c 3.32 -3.29 5.13 -7.76 9.18 -10.64 a 22.3 22.3 0 0 0 6.89 -8.33 c 2.81 -6 2.83 -12.44 -1 -18.13 c -1.91 -2.87 -3.87 -6.23 -8 -6.8 c -2.13 -0.3 -4.25 -0.68 -6.37 -1 L 65.78 135 c 4 7.39 9.82 13 10.49 21.52 c 0.43 5.4 -0.69 10.47 -1.41 15.65 a 4.29 4.29 0 0 1 -1.37 2.53 C 71 176.73 71.49 179.21 72 182.11 Z m 120.38 -52.64 c -5.22 -5.41 -10.46 -10.26 -13.24 -16.88 a 43.94 43.94 0 0 1 -3.47 -20.47 c -3.05 2.66 -6.15 5.25 -9.13 8 c -5 4.55 -5.49 14.08 -1.06 19.35 c 3.28 3.9 6.61 7.75 9.94 11.65 C 180.85 131.11 186.27 131.42 192.33 129.47 Z M 99.48 163.59 a 31.32 31.32 0 0 1 14.76 9.16 a 46.61 46.61 0 0 1 9.13 15.1 c -2.1 -15.27 0.52 -30.29 0.67 -45.95 Z m 38.74 -26.45 c -0.18 3.13 1.66 4.92 3.47 6.83 c 2.38 2.53 4.61 5.2 6.77 7.91 c 1.3 1.63 2.16 3.63 3.54 5.18 c 2.52 2.85 5.25 5.51 7.95 8.19 c 1.32 1.3 2.78 2.44 4.18 3.66 a 46 46 0 0 0 -2.4 -9.68 c -0.47 -1.54 -1.09 -3.26 -0.85 -4.77 c 1 -6.08 2.31 -12.09 8.4 -15.44 c 0.14 -0.08 0.06 -0.56 0.09 -1.14 Z m -5.47 -45.53 a 40.22 40.22 0 0 0 -0.78 5.16 c 0 2.11 0.31 4.23 0.39 6.35 c 0.25 7 0.47 14 0.71 21.46 c 10.31 -6.93 16.65 -16.65 24.49 -25.2 C 148.11 101.5 140.85 97.1 132.75 91.61 Z m -1.19 52 c 1.23 13.24 -0.7 25.28 0.8 37.34 c 0.69 -0.46 1.26 -1 1.2 -1.51 c -0.4 -2.86 1.61 -4.09 3.46 -5.51 a 12.31 12.31 0 0 1 13.49 -1.55 c 1.3 0.59 2.63 1.51 4.28 -0.16 c -1.09 -1.19 -2.2 -2.36 -3.26 -3.56 c -2.73 -3.08 -5.59 -6.06 -8.14 -9.29 C 139.57 154.47 136 149.45 131.56 143.56 Z M 167 131.11 c -1.88 -1.93 -3.12 -3.46 -4.61 -4.69 c -4.61 -3.78 -6.5 -8.33 -4.14 -14.1 c -1.93 -1.73 -3.33 -1.38 -4.6 0.54 c -3.94 6 -9.05 10.89 -14.48 15.5 a 13 13 0 0 0 -1.77 2.75 Z m -41.86 -30.84 c -5 4.53 -10 8.8 -17.38 8 c 2.84 5.39 14.5 17.74 18.7 19.79 C 126.25 118.78 123.13 109.77 125.14 100.27 Z m -6.65 31.52 l -17.17 -17.33 c -0.78 3.66 -0.81 7.4 -2.41 10.27 s -4.83 5 -8.25 8.42 c 2.89 -0.13 4.62 -0.15 6.33 -0.31 c 1.13 -0.1 2.25 -0.65 3.35 -0.59 c 5.73 0.31 11.43 -1.92 17.16 -0.16 C 117.63 132.13 117.81 132 118.49 131.79 Z M 93.8 139.56 c 4.08 4.79 4.91 10.1 5 16.36 l 19.33 -16.75 c -4.46 0.09 -8 -0.07 -11.82 0.66 S 98.57 139.74 93.8 139.56 Z" stroke-linecap="round"/>
</g>
</svg>